<?xml version="1.0" standalone="no"?><!DOCTYPE svg PUBLIC "-//W3C//DTD SVG 1.1//EN" "http://www.w3.org/Graphics/SVG/1.1/DTD/svg11.dtd"><svg t="1567927132151" class="icon" viewBox="0 0 1024 1024" version="1.1" xmlns="http://www.w3.org/2000/svg" p-id="1897" xmlns:xlink="http://www.w3.org/1999/xlink" width="32" height="32"><defs><style type="text/css"></style></defs><path d="M1024 824c0 110-90 200-200 200H200C90 1024 0 934 0 824V200C0 90 90 0 200 0h624c110 0 200 90 200 200v624z" fill="#F5C720" p-id="1898"></path><path d="M514.531 805.138c-163.984 0-296.919-41.925-296.919-93.632 0-41.225 84.569-76.144 201.881-88.662l3.131 34.356c-69.935 10.031-125.116 30.556-125.116 54.306 0 33.601 110.435 60.856 217.022 60.856 106.588 0 217.019-27.256 217.019-60.856 0-24.037-56.493-44.75-127.594-54.637l3.125-34.313c118.619 12.281 204.356 47.425 204.356 88.949 0.002 51.708-132.936 93.633-296.905 93.633z m-26.997-80.976V589.206h53.979v134.956h-53.979zM379.565 454.237h269.922l80.976 53.988-80.976 53.988H379.565V454.237zM244.603 346.284l107.972-53.997h377.888v107.972H352.575l-107.972-53.975z m242.931-134.971l52.297-0.112 1.682 54.109h-53.979v-53.997z m0 0" fill="#FFFFFF" p-id="1899"></path></svg>