<?xml version="1.0" standalone="no"?><!DOCTYPE svg PUBLIC "-//W3C//DTD SVG 1.1//EN" "http://www.w3.org/Graphics/SVG/1.1/DTD/svg11.dtd"><svg t="1567927124001" class="icon" viewBox="0 0 1024 1024" version="1.1" xmlns="http://www.w3.org/2000/svg" p-id="1764" xmlns:xlink="http://www.w3.org/1999/xlink" width="32" height="32"><defs><style type="text/css"></style></defs><path d="M1024 824c0 110-90 200-200 200H200C90 1024 0 934 0 824V200C0 90 90 0 200 0h624c110 0 200 90 200 200v624z" fill="#BB4A96" p-id="1765"></path><path d="M334.322 419.413l-172.369-71.25 92.612-68.813 109.841 50.163-30.084 89.9z m-172.369-29.438l163.366 72.675L500.9 806.1 161.953 389.975zM691.281 462l153.075-73.6-322.231 421.269L691.281 462z m-3.218-42.444L644.969 330.8l98.4-54.675 84.906 71.394-140.212 72.037zM393.491 296.069l-37.303-9.644-70.106-39.237 82.328-29.587h268.84l81.682 34.087-78.463 37.95-26.375 6.431H393.491z m0 0" fill="#FFFFFF" p-id="1766"></path><path d="M503.075 312.663c0-5.613 2.806-8.425 8.425-8.425 5.612 0.631 8.731 3.75 9.362 9.363v33.413h91.519c4.981 0.625 7.794 3.737 8.419 9.356-0.625 5.619-3.438 8.431-8.419 8.431h-91.519v36.75h168.106c4.981 0.631 0 17.794 0 17.794H466.556c3.116 1.256 5.294 3.431 6.556 6.556 6.856 14.975 10.297 63.631 10.297 67.375h57.109c1.875-4.356 4.362-50.206 7.494-58.956 0.606-2.481 1.55-4.988 2.806-7.488 1.875-4.987 5.619-6.856 11.238-5.619 5.612 1.875 7.8 5.619 6.556 11.238-2.506 5.619-5.006 52.094-7.493 60.825h44.006c5.619 0.638 8.419 3.75 8.419 9.363 0 6.25-2.8 9.362-8.419 9.362h-84.263v52.45h92.682c5.618 0.631 8.737 3.75 9.368 9.368-0.631 6.244-3.75 9.363-9.368 9.363h-92.682V800c-0.631 4.981-3.75 7.8-9.362 8.432-5.619-0.632-8.425-3.45-8.425-8.432V583.182h-91.756c-6.25 0-9.366-3.119-9.366-9.363 0-5.618 3.116-8.737 9.366-9.368h91.756V512h-80.528c-6.241 0-9.356-3.112-9.356-9.362 0-5.613 3.116-8.725 9.356-9.363h41.197c-1.869-4.987-3.741-48.962-5.616-53.337-1.256-1.869-2.193-4.356-2.806-7.487-2.503-6.863 0-11.238 7.488-13.106H334.634l-4.719-17.794h173.16V364.8H399.763c-6.25 0-9.363-2.813-9.363-8.431s1.428-8.731 7.669-9.356h105.006v-34.35z" fill="#FFFFFF" p-id="1767"></path></svg>