<?xml version="1.0" standalone="no"?><!DOCTYPE svg PUBLIC "-//W3C//DTD SVG 1.1//EN" "http://www.w3.org/Graphics/SVG/1.1/DTD/svg11.dtd"><svg t="1567927734660" class="icon" viewBox="0 0 1024 1024" version="1.1" xmlns="http://www.w3.org/2000/svg" p-id="3358" xmlns:xlink="http://www.w3.org/1999/xlink" width="32" height="32"><defs><style type="text/css"></style></defs><path d="M1024 824c0 110-90 200-200 200H200C90 1024 0 934 0 824V200C0 90 90 0 200 0h624c110 0 200 90 200 200v624z" fill="#F5C720" p-id="3359"></path><path d="M736.925 527.156V265.172c0-11.15-9-20.125-20.106-20.125H636.37v28.362h-20.125v-48.494c0-11.106-9.02-20.116-20.113-20.116h-20.125c-11.105 0-20.105 9.01-20.105 20.116v48.494h-20.138v-28.362H415.091v28.362h-20.109v-48.494c0-11.106-9.031-20.116-20.125-20.116h-20.109c-11.119 0-20.122 9.01-20.122 20.116v48.494h-20.109v-28.362h-80.481c-11.094 0-20.109 8.975-20.109 20.125v485.403c0 11.112 9.016 20.087 20.109 20.087h309.96l100.55-209.618 92.379-33.888zM304.263 363.644h342.175c13.487 0 24.425 10.944 24.425 24.441 0 13.5-10.938 24.444-24.425 24.444H304.263c-13.491 0-24.428-10.944-24.428-24.444-0.001-13.498 10.937-24.441 24.428-24.441z m0 146.64c-13.491 0-24.428-10.943-24.428-24.44 0-13.491 10.938-24.438 24.428-24.438h342.175c13.487 0 24.425 10.947 24.425 24.438 0 13.497-10.938 24.44-24.425 24.44H304.263z m0 0" fill="#FFFFFF" p-id="3360"></path><path d="M656.037 590.138L552.981 816.725 779.7 713.744l103.031-226.647-226.694 103.041z m-61.893 185.399L676.6 610.656l82.444 82.481-164.9 82.4z m0 0" fill="#FFFFFF" p-id="3361"></path></svg>