<?xml version="1.0" standalone="no"?><!DOCTYPE svg PUBLIC "-//W3C//DTD SVG 1.1//EN" "http://www.w3.org/Graphics/SVG/1.1/DTD/svg11.dtd"><svg t="1567927708065" class="icon" viewBox="0 0 1024 1024" version="1.1" xmlns="http://www.w3.org/2000/svg" p-id="2563" xmlns:xlink="http://www.w3.org/1999/xlink" width="32" height="32"><defs><style type="text/css"></style></defs><path d="M1024 824c0 110-90 200-200 200H200C90 1024 0 934 0 824V200C0 90 90 0 200 0h624c110 0 200 90 200 200v624z" fill="#44A7DF" p-id="2564"></path><path d="M605.175 603.287c0 25.119-20.094 45.213-44.587 45.213h-39.557c-12.56 0-15.706 17.588-4.4 21.975l48.981 19.469c2.513 1.263 5.025 1.263 7.538 0l142.55-47.725c23.237-8.156 48.981 5.025 56.513 28.894 7.537 23.856-5.02 48.981-28.257 57.144l-165.794 55.9c-1.875 0.612-3.762 0.612-5.649 0.612l-210.369-42.706c-5.021-1.244-9.416-5.644-9.416-11.294v-161.4c0-6.27 5.022-11.301 11.3-11.301h196.56c24.493 0 44.587 20.101 44.587 45.219zM311.906 766.563h-35.797c-8.791 0-15.697-7.531-15.697-16.331V541.119c0-8.794 6.906-16.332 15.697-16.332h35.797c8.794 0 15.7 6.906 15.7 16.332v209.112c0.628 8.8-6.906 16.332-15.7 16.332zM757.856 399.388c-16.669-14.203-25.731-22.025-27.182-23.479-7.1-6.662-15.794-15.793-26.087-27.394-19.132-22.022-35.801-46.594-50-73.697-9.426-18.263-16.895-29.056-22.388-32.388-4.638-2.756-9.275-4.134-13.919-4.134-9.138 0-17.175 2.975-24.131 8.909-6.231 5.225-9.344 11.528-9.344 18.919 0 9.275 6.23 24.425 18.699 45.438 23.332 38.987 50.138 73.697 80.432 104.131 25.938 26.087 45.443 39.637 58.481 40.65 6.519 0.438 13.037-2.315 19.568-8.259 6.963-6.228 10.432-13.475 10.432-21.738 0.002-9.708-4.867-18.696-14.561-26.958z" fill="#FFFFFF" p-id="2565"></path><path d="M695.275 420.931c-8.994-10.288-22.176-15.431-39.569-15.431H464.834l1.953-2.394c22.753-26.378 41.956-52.463 57.606-78.263 5.226-8.841 9.706-18.156 13.476-27.938 3.774-9.781 5.656-17.134 5.656-22.063 0-5.797-2.388-11.306-7.169-16.525-6.963-7.391-15.581-11.091-25.875-11.091-4.057 0-7.825 0.95-11.303 2.834-6.234 3.472-13.841 13.841-22.825 31.087-20.872 40.725-50.219 77.028-88.05 108.913-11.163 9.425-18.041 16.234-20.65 20.438-3.041 4.781-4.566 9.344-4.566 13.697 0 7.685 3.044 15.144 9.131 22.391 6.375 7.25 13.328 10.872 20.869 10.872 9.566 0 22.172-6.381 37.825-19.134 0.728 3.19 1.744 5.947 3.047 8.262 5.219 8.694 13.116 13.041 23.694 13.041h42.828c-3.041 21.457-6.45 37.613-10.219 48.481-4.06 11.828-9.725 22.753-16.984 32.778h68.409c5.081-12.044 8.963-24.632 11.619-37.778 1.594-7.678 3.475-22.178 5.649-43.481h73.706c13.038 0 19.194 4.863 18.476 14.569l-0.213 1.953-3.487 87.613c-0.425 13.05-2.019 21.818-4.781 26.306-2.463 4.207-7.169 6.307-14.125 6.307-2.531 0-5.594-0.206-9.156-0.619 2.119 4.919 4.869 40.25-21.987 53.557 11.8 1.95 24.787 2.938 38.969 2.938 27.831 0 47.1-9.206 57.831-27.612 5.938-10.288 9.412-29.781 10.432-58.481l3.699-105.656v-1.956c-0.001-15.365-4.35-27.899-13.044-37.615z" fill="#FFFFFF" p-id="2566"></path></svg>