<?xml version="1.0" standalone="no"?><!DOCTYPE svg PUBLIC "-//W3C//DTD SVG 1.1//EN" "http://www.w3.org/Graphics/SVG/1.1/DTD/svg11.dtd"><svg t="1567927696540" class="icon" viewBox="0 0 1024 1024" version="1.1" xmlns="http://www.w3.org/2000/svg" p-id="2164" xmlns:xlink="http://www.w3.org/1999/xlink" width="32" height="32"><defs><style type="text/css"></style></defs><path d="M1024 824c0 110-90 200-200 200H200C90 1024 0 934 0 824V200C0 90 90 0 200 0h624c110 0 200 90 200 200v624z" fill="#ADCF3C" p-id="2165"></path><path d="M535.369 480.897V343.834c-7.025-0.675-13.807-1.447-19.606-2.391v-0.25h-1.231l0.013 0.009h1.206v0.259h-0.966l-0.013-0.006c-0.031 0.031-0.246 0.225-0.465 0.225-7.5 0.975-16.707 2.156-27.101 3.134v136.097H204.8V371.656c0-17.181 13.753-30.953 30.981-30.953h128.703c-34.56-7.228-60.491-22.013-61.44-49.31-0.975-32.153 35.318-84.134 88.318-72.271 54.709 12.291 92.932 54.622 122.21 90.878 29.534-36.969 71.384-84.6 128.484-92.112 47.706-6.038 87.144 41.597 82.063 73.021-4.351 27.541-30.744 42.544-64.395 49.785h127.051c17.199 0 30.98 13.766 30.98 30.95V480.9H535.369v-0.003zM397.19 247.625c-26.4-10.403-41.869 0.756-52.997 19.119-6.056 10.378-12.569 24.178-2.913 34.319 25.397 26.125 95.084 24.194 141.819 19.334-22.039-27.513-49.133-58.25-85.909-72.772z m288.685 53.222c18.144-23.222-17.412-71.572-55.65-53.703-36.556 17.185-62.918 45.197-85.662 72.775 19.563 1.712 39.425 2.159 59.037 1.206 23.963-0.969 68.244-2.653 82.275-20.278zM489.131 807.706H258.994c-15.5 0-28.084-12.544-28.084-28.269V502.931h258.222v304.775z m302.5-28.268c0 15.731-12.587 28.269-28.094 28.269H533.432V502.931h258.199v276.507z m0 0" fill="#FFFFFF" p-id="2166"></path></svg>