<?xml version="1.0" standalone="no"?><!DOCTYPE svg PUBLIC "-//W3C//DTD SVG 1.1//EN" "http://www.w3.org/Graphics/SVG/1.1/DTD/svg11.dtd"><svg t="1567927704916" class="icon" viewBox="0 0 1024 1024" version="1.1" xmlns="http://www.w3.org/2000/svg" p-id="2429" xmlns:xlink="http://www.w3.org/1999/xlink" width="32" height="32"><defs><style type="text/css"></style></defs><path d="M1024 824c0 110-90 200-200 200H200C90 1024 0 934 0 824V200C0 90 90 0 200 0h624c110 0 200 90 200 200v624z" fill="#ADCF3C" p-id="2430"></path><path d="M712.188 322.344c-1.006-38.534-37.938-38.534-63.112-38.534h-9.469v-31.422h18.943c41.888 0 84.25 20.141 84.25 77.068v183.156h-30.612V322.344z m-102.12 153.375H382.337c-15.709 0-24.266-9.4-24.266-20.984 0-11.578 8.556-20.978 24.266-20.978H610c15.713 0 24.275 9.394 24.275 20.978 0 11.596-8.494 20.984-24.207 20.984z m0-131.185c-11.581 0-20.987-8.766-20.987-24.744v-77.069c0-15.95 9.406-24.744 20.987-24.744 11.588 0 20.981 8.763 20.981 24.744v77.069c-0.049 15.947-9.405 24.744-20.981 24.744zM411.95 252.388h168.575v31.422H411.95v-31.422z m-29.613 92.146c-11.578 0-20.981-8.766-20.981-24.744v-77.069c0-15.95 9.409-24.744 20.981-24.744 11.575 0 20.981 8.763 20.981 24.744v77.069c0.001 15.947-9.346 24.744-20.981 24.744z m0 0" fill="#FFFFFF" p-id="2431"></path><path d="M280.222 322.344v383.019c0 34.612 16.988 55.325 37.935 55.325h206.519V792.1H325.472c-41.891 0-75.865-34.5-75.865-77.063V329.456c0-42.563 15.95-77.068 84.262-77.068h18.966v31.422H343.4c-53.509-2.522-63.178 17.184-63.178 38.534z m0 0" fill="#FFFFFF" p-id="2432"></path><path d="M382.337 591.425c-15.709 0-24.266-9.388-24.266-20.975 0-11.575 8.556-20.976 24.266-20.976h170.731c15.713 0 24.275 9.4 24.275 20.976 0 11.587-8.563 20.975-24.275 20.975H382.337zM620.213 580.7l-80.5 234.625L770.6 733.563l80.494-234.578L620.213 580.7z m-41.969 195.225l62.043-174.7 110.338 111.9-172.381 62.8z m0 0" fill="#FFFFFF" p-id="2433"></path></svg>