<?xml version="1.0" standalone="no"?><!DOCTYPE svg PUBLIC "-//W3C//DTD SVG 1.1//EN" "http://www.w3.org/Graphics/SVG/1.1/DTD/svg11.dtd"><svg t="1567927727550" class="icon" viewBox="0 0 1024 1024" version="1.1" xmlns="http://www.w3.org/2000/svg" p-id="3093" xmlns:xlink="http://www.w3.org/1999/xlink" width="32" height="32"><defs><style type="text/css"></style></defs><path d="M1024 824c0 110-90 200-200 200H200C90 1024 0 934 0 824V200C0 90 90 0 200 0h624c110 0 200 90 200 200v624z" fill="#F5C720" p-id="3094"></path><path d="M823.162 482.756l-54.431-257.2c-0.682-2.043-1.706-4.09-3.063-5.447 1.356 72.469 0.337 144.938 0.675 217.741-2.037 18.369 4.432 38.1-3.731 55.793-78.594 83.013-159.906 163.644-239.519 245.638-9.525 12.925-22.794 22.112-37.766 27.213l61.578 40.493c29.594 19.382 69.406 10.544 88.45-19.731l186.1-295.318c1.707-2.716 2.389-6.119 1.707-9.182zM584.325 275.225c13.612-13.95 31.3-20.756 48.993-20.756 17.351 0 35.044 6.806 48.656 20.756 26.875 27.215 26.875 71.788 0 99.003a67.999 67.999 0 0 1-97.649 0c-26.869-27.215-26.869-71.788 0-99.003zM747.638 488.2c2.381-2.381 3.399-5.444 3.399-8.51V216.372c0-3.063-1.362-6.128-3.399-8.169-2.382-2.384-5.101-3.403-8.169-3.403H481.247c-3.066 0-6.125 1.359-8.169 3.403L229.822 456.219c-24.831 25.519-24.831 67.031 0 92.537l184.06 187.801c25.175 25.519 65.663 25.519 90.494 0L747.638 488.2zM402.997 606.256l-24.838-25.175c9.525-6.462 17.354-13.269 27.56-23.475l22.456-22.456-35.387-35.382c-10.888-10.887-17.35-16.331-26.878-23.134l25.178-25.175c6.462 9.869 11.91 16.328 22.794 27.215l35.384 35.382 12.247-12.244 5.443-24.156-25.859-26.197c-10.884-10.55-17.35-16.334-27.215-22.794l24.837-24.837c6.803 9.528 12.584 15.994 23.475 26.875l16.672 16.672 15.647-90.156c3.063-17.009 4.081-25.856 4.762-33.685l25.856 25.863c-3.406 6.797-5.443 13.266-8.844 31.978l-25.515 112.947 112.272-26.197c17.35-3.403 25.175-5.438 31.975-8.841l25.862 25.856c-6.8 0.337-18.375 1.7-34.024 4.419l-89.819 15.987 16.676 16.672c10.887 10.894 17.688 16.675 27.219 23.475l-24.844 24.838c-6.801-9.525-12.926-16.669-23.469-27.213l-25.52-25.859-24.834 5.791-11.906 11.9 35.381 35.381c10.546 10.55 17.353 16.338 26.878 22.794l-24.841 24.837c-6.8-9.524-12.925-16.324-23.131-26.875l-35.381-35.043-22.453 22.449c-11.569 11.232-17.01 17.701-23.816 27.563z m0 0" fill="#FFFFFF" p-id="3095"></path></svg>