<?xml version="1.0" standalone="no"?><!DOCTYPE svg PUBLIC "-//W3C//DTD SVG 1.1//EN" "http://www.w3.org/Graphics/SVG/1.1/DTD/svg11.dtd"><svg t="1567927720341" class="icon" viewBox="0 0 1024 1024" version="1.1" xmlns="http://www.w3.org/2000/svg" p-id="2829" xmlns:xlink="http://www.w3.org/1999/xlink" width="32" height="32"><defs><style type="text/css"></style></defs><path d="M1024 824c0 110-90 200-200 200H200C90 1024 0 934 0 824V200C0 90 90 0 200 0h624c110 0 200 90 200 200v624z" fill="#F5C720" p-id="2830"></path><path d="M489.788 775.469a18.273 18.273 0 0 1-7.553 14.594 18.29 18.29 0 0 1-16.222 2.606l-222.082-76.438c-15.813-5.244-26.438-20.075-26.328-36.726V276.106a38.86 38.86 0 0 1 16.022-31.741 38.84 38.84 0 0 1 35.15-5.41l195.959 67.088a38.636 38.636 0 0 1 25.053 35.456v433.97z m322.293-95.963c0.175 16.676-10.475 31.538-26.331 36.726L563.456 792.67a18.057 18.057 0 0 1-16.306-2.494 18.014 18.014 0 0 1-7.463-14.706V341.291a38.642 38.642 0 0 1 25.05-35.456l196.175-66.878a38.826 38.826 0 0 1 34.882 5.225 38.828 38.828 0 0 1 16.287 31.291v404.033z m0 0" fill="#FFFFFF" p-id="2831"></path></svg>