<?xml version="1.0" standalone="no"?><!DOCTYPE svg PUBLIC "-//W3C//DTD SVG 1.1//EN" "http://www.w3.org/Graphics/SVG/1.1/DTD/svg11.dtd"><svg t="1567927750186" class="icon" viewBox="0 0 1024 1024" version="1.1" xmlns="http://www.w3.org/2000/svg" p-id="3891" xmlns:xlink="http://www.w3.org/1999/xlink" width="32" height="32"><defs><style type="text/css"></style></defs><path d="M1024 824c0 110-90 200-200 200H200C90 1024 0 934 0 824V200C0 90 90 0 200 0h624c110 0 200 90 200 200v624z" fill="#ADCF3C" p-id="3892"></path><path d="M793.619 269.497H228.212c-24.606 0-44.637 20.028-44.637 44.637v401.735c0 24.612 20.031 44.637 44.637 44.637h565.407c24.605 0 44.637-20.024 44.637-44.637V314.134c0-24.609-20.031-44.637-44.637-44.637zM808.5 715.869a14.87 14.87 0 0 1-14.88 14.875H228.212c-8.194 0-14.878-6.663-14.878-14.875V314.134c0-8.2 6.684-14.878 14.878-14.878h565.407c8.212 0 14.881 6.678 14.881 14.878v401.735z m0 0" fill="#FFFFFF" p-id="3893"></path><path d="M466.697 547.956a103.971 103.971 0 0 0 44.219-85.031c0-57.434-46.719-104.153-104.15-104.153-57.438 0-104.156 46.719-104.156 104.153a104.033 104.033 0 0 0 44.206 85.031c-47.984 17.307-87.803 54.669-106.7 103.663-2.957 7.668 0.859 16.281 8.528 19.243 7.666 2.956 16.278-0.862 19.238-8.524 21.991-56.976 77.803-95.263 138.884-95.263 61 0 116.791 38.212 138.803 95.094a14.875 14.875 0 0 0 11.594 9.325 14.882 14.882 0 0 0 13.882-5.375 14.87 14.87 0 0 0 2.274-14.707c-18.925-48.875-58.7-86.162-106.622-103.456z m-59.931-10.643c-41.028 0-74.4-33.369-74.4-74.388 0-41.021 33.372-74.394 74.4-74.394 41.022 0 74.391 33.372 74.391 74.394-0.001 41.019-33.369 74.388-74.391 74.388zM743.4 403.409h-0.075l-193.432 0.463c-8.206 0.031-14.844 6.259-14.8 14.49 0.037 8.191 6.693 14.807 14.881 14.807h0.069l193.431-0.703a14.672 14.672 0 0 0 10.481-4.263 14.694 14.694 0 0 0 4.325-10.453c-0.043-8.194-6.699-14.341-14.88-14.341z m0 89.279h-0.113l-124.618 0.462c-8.206 0.05-14.819 6.3-14.763 14.519 0.063 8.175 6.713 14.774 14.888 14.774h0.112l124.612-0.706a14.629 14.629 0 0 0 10.463-4.294 14.622 14.622 0 0 0 4.3-10.462c-0.056-8.168-6.713-14.293-14.881-14.293z m0 89.268h-0.1l-144.149 0.463c-8.219 0.056-14.832 6.294-14.775 14.519 0.057 8.175 6.706 14.781 14.881 14.781h0.101l144.149-0.7a14.664 14.664 0 0 0 10.463-4.294 14.658 14.658 0 0 0 4.313-10.449c-0.058-8.188-6.702-14.32-14.883-14.32z m0 0" fill="#FFFFFF" p-id="3894"></path></svg>