<?xml version="1.0" standalone="no"?><!DOCTYPE svg PUBLIC "-//W3C//DTD SVG 1.1//EN" "http://www.w3.org/Graphics/SVG/1.1/DTD/svg11.dtd"><svg t="1567927777703" class="icon" viewBox="0 0 1024 1024" version="1.1" xmlns="http://www.w3.org/2000/svg" p-id="4951" xmlns:xlink="http://www.w3.org/1999/xlink" width="32" height="32"><defs><style type="text/css"></style></defs><path d="M1024 824c0 110-90 200-200 200H200C90 1024 0 934 0 824V200C0 90 90 0 200 0h624c110 0 200 90 200 200v624z" fill="#ADCF3C" p-id="4952"></path><path d="M773.688 629.312c0 8.284-6.716 15-15 15h-160c-8.284 0-15-6.716-15-15 0-8.284 6.716-15 15-15h160c8.285 0 15 6.715 15 15z m0-84c0-8.284-6.716-15-15-15h-110c-8.284 0-15 6.716-15 15 0 8.284 6.716 15 15 15h110c8.285 0 15-6.716 15-15zM558.686 691.338c0 8.603-6.917 15.571-15.447 15.571s-15.448-6.969-15.448-15.571l-0.02-0.194h-0.422c-7.327-60.348-57.352-107.296-118.736-109.238-1.329 0.051-2.624 0.204-3.963 0.204-1.327 0-2.624-0.153-3.941-0.204-61.364 1.954-111.39 48.902-118.717 109.238h-0.391l0.021 0.194c0 8.603-6.917 15.571-15.448 15.571-8.53 0-15.448-6.969-15.448-15.571l-0.143-1.45c0-2.057 0.422-4.003 1.132-5.795 7.75-54.51 43.324-99.935 91.877-121.012-28.526-19.665-47.265-52.71-47.265-90.179 0-60.304 48.511-109.188 108.331-109.188 59.822 0 108.323 48.893 108.323 109.197a109.287 109.287 0 0 1-47.245 90.149c49.045 21.263 84.838 67.353 92.146 122.545a15.53 15.53 0 0 1 0.658 4.281l0.146 1.452zM404.63 550.939c42.727 0 77.377-34.93 77.377-78.006 0-43.079-34.64-78.005-77.377-78.005-42.739 0-77.379 34.926-77.379 78.005-0.001 43.077 34.649 78.006 77.379 78.006z m396.058-106.272v271.244c0 19-15.979 34.4-35.693 34.4H256.381c-19.712 0-35.692-15.4-35.692-34.4v-361.2c0-18.998 15.98-34.399 35.692-34.399h277.32a162.447 162.447 0 0 1 4.008-35H225.688c-22.091 0-40 17.908-40 40v420c0 22.092 17.909 40 40 40h570c22.092 0 40-17.908 40-40V402.855a162.736 162.736 0 0 1-35 41.812z m37.624-123.355c0 78.769-63.855 142.622-142.623 142.622S553.065 400.08 553.065 321.312s63.855-142.623 142.623-142.623 142.624 63.854 142.624 142.623z m-25 0c0-64.961-52.662-117.623-117.623-117.623s-117.623 52.662-117.623 117.623 52.662 117.622 117.623 117.622 117.623-52.662 117.623-117.622z m-149.261-47.139c4.754-9.293 7.133-16.399 7.133-21.317 0-3.619-1.893-6.322-5.674-8.105-3.027-1.459-5.783-2.188-8.268-2.188-1.406 0-2.675 0.379-3.81 1.135-2.324 1.514-4.729 5.485-7.214 11.915-6.432 16.59-13.889 30.233-22.371 40.933-5.404 6.863-8.105 11.7-8.105 14.509 0 2.541 1.08 4.973 3.242 7.295 2.863 3.027 6.079 4.539 9.646 4.539 2.539 0 5.593-2.026 9.159-6.079v71.166c0 2.323 0.837 4.377 2.513 6.16 2.27 2.432 5.106 3.647 8.511 3.647 2.971 0 5.564-0.973 7.781-2.918 2.215-1.945 3.323-4.242 3.323-6.89V282.116l4.134-7.943z m43.04 78.542c5.025 12.861 10.861 22.911 17.508 30.152 7.727 8.43 15.858 12.645 24.397 12.645 11.186 0 18.102-6.512 20.75-19.534 1.783-8.699 2.675-16.049 2.675-22.047 0-6.322-3.919-9.483-11.753-9.483-2.486 0-4.351 0.486-5.593 1.459-1.783 1.459-2.865 4.567-3.242 9.321-0.648 7.891-1.487 12.699-2.513 14.428-0.648 1.082-1.459 1.621-2.432 1.621-0.324 0-0.811-0.296-1.459-0.892-0.055 0-0.243-0.162-0.567-0.486-4.594-3.943-9.025-10.401-13.293-19.372-3.514-7.402-6.351-15.291-8.511-23.668-1.621-6.213-3.08-13.887-4.377-23.02l45.31-4.539c1.512-0.162 2.89-0.892 4.134-2.188 1.891-1.998 2.837-4.539 2.837-7.619 0-2.971-0.892-5.483-2.675-7.538-1.621-1.891-3.676-2.837-6.16-2.837h-0.729l-45.066 3.972c-0.703-8.969-1.135-16.669-1.297-23.101-0.162-7.023-0.865-11.644-2.107-13.86-1.459-2.594-4.296-3.891-8.511-3.891-4.107 0-7.188 0.892-9.24 2.675-1.459 1.297-2.188 3.729-2.188 7.295 0 8.646 0.513 19.563 1.54 32.746l-23.668 2.026c-1.676 0.162-3.189 0.946-4.539 2.351-2 2.107-2.999 4.701-2.999 7.781 0 3.135 1.025 5.891 3.08 8.268 1.783 2.055 3.7 3.08 5.755 3.08h0.648l23.749-2.432c2.376 19.238 5.887 34.8 10.536 46.687z m21.966-103.75c-2.594 2.541-3.891 4.973-3.891 7.295 0 1.568 1.593 4.215 4.782 7.943 1.188 1.406 4.673 5.025 10.456 10.861 2.484 2.541 4.835 3.81 7.052 3.81 2.377 0 4.782-1.135 7.214-3.404 2.594-2.432 3.891-4.863 3.891-7.295 0-2.863-2.27-6.78-6.809-11.753-6.809-7.348-12.051-11.023-15.725-11.023-2.269-0.001-4.593 1.189-6.97 3.566z" fill="#FFFFFF" p-id="4953"></path></svg>