<?xml version="1.0" standalone="no"?><!DOCTYPE svg PUBLIC "-//W3C//DTD SVG 1.1//EN" "http://www.w3.org/Graphics/SVG/1.1/DTD/svg11.dtd"><svg t="1567927781508" class="icon" viewBox="0 0 1024 1024" version="1.1" xmlns="http://www.w3.org/2000/svg" p-id="5083" xmlns:xlink="http://www.w3.org/1999/xlink" width="32" height="32"><defs><style type="text/css"></style></defs><path d="M1024 824c0 110-90 200-200 200H200C90 1024 0 934 0 824V200C0 90 90 0 200 0h624c110 0 200 90 200 200v624z" fill="#44A7DF" p-id="5084"></path><path d="M773.688 619.312c0 8.284-6.716 15-15 15h-160c-8.284 0-15-6.716-15-15 0-8.284 6.716-15 15-15h160c8.285 0 15 6.715 15 15z m0-84c0-8.284-6.716-15-15-15h-110c-8.284 0-15 6.716-15 15 0 8.284 6.716 15 15 15h110c8.285 0 15-6.716 15-15zM558.686 681.338c0 8.603-6.917 15.571-15.447 15.571s-15.448-6.969-15.448-15.571l-0.02-0.194h-0.422c-7.327-60.348-57.352-107.296-118.736-109.238-1.329 0.051-2.624 0.204-3.963 0.204-1.327 0-2.624-0.153-3.941-0.204-61.364 1.954-111.39 48.902-118.717 109.238h-0.391l0.021 0.194c0 8.603-6.917 15.571-15.448 15.571-8.53 0-15.448-6.969-15.448-15.571l-0.143-1.45c0-2.057 0.422-4.003 1.132-5.795 7.75-54.51 43.324-99.935 91.877-121.012-28.526-19.665-47.265-52.71-47.265-90.179 0-60.304 48.511-109.188 108.331-109.188 59.822 0 108.323 48.893 108.323 109.197a109.287 109.287 0 0 1-47.245 90.149c49.045 21.263 84.838 67.353 92.146 122.545a15.53 15.53 0 0 1 0.658 4.281l0.146 1.452zM404.63 540.939c42.727 0 77.377-34.93 77.377-78.006 0-43.079-34.64-78.005-77.377-78.005-42.739 0-77.379 34.926-77.379 78.005-0.001 43.077 34.649 78.006 77.379 78.006z m396.058-106.272v271.244c0 19-15.979 34.4-35.693 34.4H256.381c-19.712 0-35.692-15.4-35.692-34.4v-361.2c0-18.998 15.98-34.399 35.692-34.399h277.32a162.447 162.447 0 0 1 4.008-35H225.688c-22.091 0-40 17.908-40 40v420c0 22.092 17.909 40 40 40h570c22.092 0 40-17.908 40-40V392.855a162.736 162.736 0 0 1-35 41.812z m37.624-123.355c0 78.769-63.855 142.622-142.623 142.622S553.065 390.08 553.065 311.312s63.855-142.623 142.623-142.623 142.624 63.854 142.624 142.623z m-25 0c0-64.961-52.662-117.623-117.623-117.623s-117.623 52.662-117.623 117.623 52.662 117.622 117.623 117.622 117.623-52.662 117.623-117.622z m-92.359 63.663c0 4.215 1.512 7.159 4.539 8.835 3.457 1.945 10.185 2.918 20.183 2.918 7.402 0 12.726-0.919 15.968-2.756 4.484-2.54 6.728-7.809 6.728-15.806v-77.813c0-3.781-1.189-7.023-3.566-9.727-2.541-2.918-6.62-4.377-12.239-4.377h-15.968c2.215-4.701 3.35-7.781 3.404-9.24 0.053-0.756-0.271-1.647-0.973-2.675h28.531c2.16 0 3.972-0.62 5.431-1.864 1.836-1.566 2.756-3.972 2.756-7.214 0-2.918-0.811-5.321-2.432-7.214-1.459-1.674-3.378-2.513-5.755-2.513h-53.982c-1.514-5.133-3.161-8.673-4.944-10.618-2.107-2.27-4.973-3.404-8.592-3.404-3.676 0-6.944 0.839-9.808 2.513-2.162 1.297-3.242 3.054-3.242 5.269 0 1.244 0.377 2.946 1.135 5.106 0.107 0.271 0.243 0.648 0.405 1.135h-55.36c-1.838 0-3.459 0.677-4.863 2.026-2 1.893-2.999 4.296-2.999 7.214 0 2.648 0.837 4.944 2.513 6.89 1.566 1.783 3.35 2.675 5.35 2.675h28.612c-0.648 0.973-0.973 1.812-0.973 2.513 0 1.568 1.216 4.701 3.647 9.402h-15.563c-5.188 0-9.052 1.135-11.591 3.404-2.973 2.594-4.458 7.052-4.458 13.374v86.647c0 1.783 0.62 3.35 1.864 4.701 2.16 2.215 5.052 3.323 8.673 3.323 3.133 0 5.7-0.865 7.7-2.594 1.674-1.459 2.513-3.27 2.513-5.431v-53.901c1.998 4.432 4.701 6.646 8.105 6.646 1.674 0 3.269-0.458 4.782-1.378a24.014 24.014 0 0 0-0.081 2.026v23.749c0 9.24 4.835 13.86 14.509 13.86h40.69c-0.434 1.569-0.649 3.002-0.649 4.299z m-47.174-74.165c-4.811 4.973-8.592 8.458-11.348 10.456-5.08 3.621-8.024 6.079-8.835 7.376v-19.291c0-2.863 1.917-4.296 5.755-4.296h21.317c-2.054 1.189-4.35 3.108-6.889 5.755z m11.753-24.56c0.107-0.648 0.162-1.054 0.162-1.216 0-2.377-1.487-5.943-4.458-10.699h38.42c-2.973 4.539-4.458 8.215-4.458 11.023 0 0.162 0.026 0.46 0.081 0.892h-29.747z m26.586 20.912c-2.648 2.594-3.972 5.054-3.972 7.376 0 2.541 2.728 5.783 8.187 9.727 0.594 0.434 1.674 1.297 3.242 2.594 0.701 0.541 1.729 1.352 3.08 2.432a26.072 26.072 0 0 0-1.945-0.081h-38.987c7.619-7.402 11.429-12.535 11.429-15.4v-0.081c0-3.188-1.919-5.889-5.755-8.105a5.616 5.616 0 0 0-1.135-0.567h28.774a13.27 13.27 0 0 0-2.918 2.105z m-24.884 40.69c0.701-0.811 1.485-1.216 2.351-1.216h21.479c3.35 0 5.025 1.352 5.025 4.053l-0.081 9.321c0 2.162-1.244 3.242-3.729 3.242h-22.614c-0.811 0-1.54-0.324-2.188-0.973-0.758-0.811-1.135-1.783-1.135-2.918v-9.402c0.001-0.701 0.297-1.404 0.892-2.107z m56.739-42.797c2.432 0 3.647 1.783 3.647 5.35v15.806c-2.703-3.188-7.161-7.159-13.374-11.915-6.863-5.24-11.672-8.32-14.428-9.24h24.155z m3.647 62.979c0 3.998-0.46 6.457-1.378 7.376-0.758 0.811-1.919 1.216-3.485 1.216h-0.405a847.836 847.836 0 0 0-9.321-0.648c1.566-2 2.351-5.078 2.351-9.24V333.07c0-1.135-0.109-2.458-0.324-3.972 2.701 1.945 4.646 2.918 5.836 2.918 2.27 0 4.511-1.485 6.728-4.458v30.476z" fill="#FFFFFF" p-id="5085"></path></svg>