<?xml version="1.0" standalone="no"?><!DOCTYPE svg PUBLIC "-//W3C//DTD SVG 1.1//EN" "http://www.w3.org/Graphics/SVG/1.1/DTD/svg11.dtd"><svg t="1567927754049" class="icon" viewBox="0 0 1024 1024" version="1.1" xmlns="http://www.w3.org/2000/svg" p-id="4024" xmlns:xlink="http://www.w3.org/1999/xlink" width="32" height="32"><defs><style type="text/css"></style></defs><path d="M1024 824c0 110-90 200-200 200H200C90 1024 0 934 0 824V200C0 90 90 0 200 0h624c110 0 200 90 200 200v624z" fill="#44A7DF" p-id="4025"></path><path d="M554.788 554.193C507.975 514.375 497.082 521 497.082 521c-19.538 10.825-41.709 17.494-65.635 17.494-25.918 0-49.856-7.613-70.543-20.119-83.847 39.231-146.322 146.175-155.479 275.899l452.087 1.694c-6.819-101.444-55.9-201.993-102.724-241.775zM431.447 765.101l-33.528-34.694 30.396-158.719-17.022-23.594c4.347-5.956 35.625-6.519 40.341 0L434.609 571.7 465 730.406l-33.553 34.695z m-70.531-255.363c20.675 12.511 44.612 20.106 70.543 20.106 23.925 0 46.1-6.656 65.634-17.45 42.313-23.259 71.275-67.772 71.275-119.469 0-75.634-61.285-136.925-136.91-136.925-75.638 0-136.935 61.291-136.935 136.925-0.01 49.703 26.739 92.828 66.393 116.813z m388.733 122.493c-31.693-26.925-39.05-22.443-39.05-22.443-13.293 7.344-28.262 11.844-44.449 11.844-17.551 0-33.801-5.169-47.744-13.632-56.813 26.556-99.1 98.976-105.337 186.819l306.13 1.149c-4.568-68.668-37.818-136.769-69.55-163.737zM666.15 775.063l-22.719-23.494 20.556-107.431-11.518-16.038c2.95-4 24.131-4.425 27.325 0l-11.5 16.038 20.556 107.431-22.7 23.494z m-47.744-172.918c13.943 8.461 30.193 13.631 47.744 13.631 16.188 0 31.156-4.525 44.449-11.838 28.644-15.731 48.269-45.9 48.269-80.881 0-51.25-41.53-92.722-92.718-92.722-51.207 0-92.719 41.472-92.719 92.722 0.001 33.643 18.069 62.837 44.975 79.088z m0 0" fill="#FFFFFF" p-id="4026"></path></svg>