<?xml version="1.0" standalone="no"?><!DOCTYPE svg PUBLIC "-//W3C//DTD SVG 1.1//EN" "http://www.w3.org/Graphics/SVG/1.1/DTD/svg11.dtd"><svg t="1567927760732" class="icon" viewBox="0 0 1024 1024" version="1.1" xmlns="http://www.w3.org/2000/svg" p-id="4289" xmlns:xlink="http://www.w3.org/1999/xlink" width="32" height="32"><defs><style type="text/css"></style></defs><path d="M1024 824c0 110-90 200-200 200H200C90 1024 0 934 0 824V200C0 90 90 0 200 0h624c110 0 200 90 200 200v624z" fill="#ADCF3C" p-id="4290"></path><path d="M471.919 326.938c-6.019-3.935-14.1-2.247-18.031 3.775l-50.975 77.975-49.606-77.844c-3.862-6.068-11.913-7.854-17.981-3.987-6.069 3.865-7.856 11.919-3.988 17.987l47.063 73.862h-36.075c-7.194 0-13.031 5.831-13.031 13.031 0 7.194 5.837 13.025 13.031 13.025h48.2v37.344h-48.2c-7.194 0-13.031 5.831-13.031 13.024 0 7.197 5.837 13.028 13.031 13.028h48.2v50.372c0 7.193 5.837 13.031 13.031 13.031s13.025-5.838 13.025-13.031v-50.372h48.207c7.194 0 13.031-5.831 13.031-13.028 0-7.193-5.837-13.024-13.031-13.024h-48.207v-37.344h48.207c7.194 0 13.031-5.831 13.031-13.025 0-7.2-5.837-13.031-13.031-13.031h-37.3l48.207-73.734c3.935-6.025 2.242-14.097-3.777-18.034z m0 0M818.019 595.794c-9.256-21.894-22.513-41.55-39.394-58.432-16.881-16.881-36.537-30.134-58.432-39.396-22.675-9.585-46.75-14.45-71.563-14.45s-48.894 4.865-71.563 14.45c-21.894 9.263-41.55 22.516-58.431 39.396-16.881 16.882-30.138 36.538-39.4 58.432-9.587 22.675-14.45 46.75-14.45 71.563 0 24.818 4.862 48.894 14.456 71.568 9.256 21.888 22.513 41.55 39.394 58.425 16.881 16.888 36.537 30.138 58.431 39.4 22.669 9.588 46.75 14.45 71.563 14.45s48.895-4.862 71.563-14.45c0.731-0.313 1.444-0.612 2.15-0.925 9.138-3.956 18.037-8.425 26.338-13.95 2.993-2 5.949-4.125 8.712-6.4 4.425-3.637 5.088-10.181 1.463-14.637-3.632-4.469-10.2-5.15-14.675-1.513a89.33 89.33 0 0 1-6.038 4.475c-20.094 13.7-44.618 21.775-68.594 25.088a153.968 153.968 0 0 1-20.919 1.438c-43.531 0-84.456-16.95-115.237-47.726-30.781-30.787-47.731-71.712-47.731-115.243s16.95-84.456 47.731-115.237 71.706-47.731 115.237-47.731 84.457 16.95 115.238 47.731 47.73 71.706 47.73 115.237c0 11.763-1.25 23.331-3.662 34.556-0.1 0.363-0.188 0.726-0.25 1.101-0.006 0.013-0.037 0.181-0.094 0.487a161.327 161.327 0 0 1-8.981 27.813c-0.231 0.55-0.431 1.037-0.6 1.494a140.9 140.9 0 0 1-3.319 6.925c-2.631 5.131-0.605 11.412 4.52 14.044a10.346 10.346 0 0 0 4.756 1.156c3.794 0 7.443-2.069 9.294-5.669 9.931-19.356 13.818-36.726 14.763-41.481 2.956-13.169 4.449-26.688 4.449-40.425 0.001-24.814-4.862-48.889-14.455-71.564z m0 0" fill="#FFFFFF" p-id="4291"></path><path d="M563.432 632.938c0 8.325 6.75 15.075 15.074 15.075h139.125a15.068 15.068 0 0 0 13.244-7.875 15.073 15.073 0 0 0-0.594-15.406L695.619 571.3c-4.531-6.987-13.863-8.975-20.851-4.45-6.987 4.538-8.975 13.875-4.443 20.856l19.556 30.156H578.506c-8.324 0-15.074 6.75-15.074 15.076z m0 0M733.831 701.775c0-8.325-6.75-15.075-15.075-15.075H579.631a15.074 15.074 0 0 0-13.25 7.881 15.087 15.087 0 0 0 0.601 15.406l34.662 53.432c2.888 4.45 7.726 6.868 12.663 6.868 2.806 0 5.656-0.774 8.188-2.425 6.987-4.531 8.975-13.862 4.443-20.85l-19.557-30.156H718.75c8.331-0.006 15.081-6.756 15.081-15.081z m0 0M405.538 634.688h-75.381c-8.325 0-15.075 6.75-15.075 15.075s6.75 15.075 15.075 15.075h75.381c8.325 0 15.075-6.75 15.075-15.075s-6.751-15.075-15.075-15.075z m0 0M561.044 358.138c-8.325 0-15.075 6.75-15.075 15.078s6.75 15.078 15.075 15.078h75.381c8.325 0 15.075-6.75 15.075-15.078s-6.75-15.078-15.075-15.078h-75.381z m0 0" fill="#FFFFFF" p-id="4292"></path><path d="M450.112 769.519h-70.525c-2 0-3.394 0.069-5.731 0.069H273.025c-16.244 0-33.406-17.163-33.406-33.406V271.888c0-16.238 17.169-33.406 33.406-33.406h418.793c16.244 0 32.619 17.168 32.619 33.406V449.06c0 10.703 7.888 19.384 18.594 19.384 10.044 0 15.925-7.631 16.912-17.409l0.106 0.007V271.888c0-37.619-30.612-68.225-68.231-68.225H273.025c-37.619 0-68.225 30.606-68.225 68.225v464.287c0 37.625 30.606 68.237 68.225 68.237l116.044-0.862h61.043c10.707 0 19.388-5.524 19.388-16.225 0-10.713-8.681-17.806-19.388-17.806z m0 0" fill="#FFFFFF" p-id="4293"></path></svg>