<?xml version="1.0" standalone="no"?><!DOCTYPE svg PUBLIC "-//W3C//DTD SVG 1.1//EN" "http://www.w3.org/Graphics/SVG/1.1/DTD/svg11.dtd"><svg t="1567927742221" class="icon" viewBox="0 0 1024 1024" version="1.1" xmlns="http://www.w3.org/2000/svg" p-id="3626" xmlns:xlink="http://www.w3.org/1999/xlink" width="32" height="32"><defs><style type="text/css"></style></defs><path d="M1024 824c0 110-90 200-200 200H200C90 1024 0 934 0 824V200C0 90 90 0 200 0h624c110 0 200 90 200 200v624z" fill="#5EC0C0" p-id="3627"></path><path d="M821.831 477.931h-16.862c-16.237-148.978-142.862-265.375-295.994-265.375-164.191 0-297.775 133.591-297.775 297.788 0 164.2 133.584 297.787 297.775 297.787 0.728 0 3.644-0.1 3.666-0.1l5.854-0.057c0.524 0.051 1.019 0.156 1.55 0.156 9.975 0 18.063-8.087 18.063-18.063 0-9.98-8.088-18.063-18.063-18.063l-11.069 0.182c-144.372 0-261.819-117.463-261.819-261.841 0-144.381 117.447-261.828 261.819-261.828 133.3 0 243.707 100.316 259.744 229.413h-15.287c-8.694 0-12.188 6.116-7.801 13.613l34 57.825c4.388 7.487 11.606 7.487 16.007 0l34-57.825c4.411-7.496 0.892-13.612-7.808-13.612z m0 0" fill="#FFFFFF" p-id="3628"></path><path d="M510 315.55c-107.578 0-194.794 87.209-194.794 194.794 0 107.588 87.216 194.8 194.794 194.8 107.588 0 194.8-87.212 194.8-194.8 0-107.585-87.212-194.794-194.8-194.794z m99.869 197.2v26.307h-76.663v36.256h76.663v26.644h-76.663v52.781h-39.453v-52.781h-79.494v-26.644h79.494v-36.256h-79.494V512.75h67.822l-82.709-119.06h44.472c38.644 59.138 62.112 96.616 70.443 112.481h0.813c2.813-6.519 10.513-19.685 23.138-39.462l47.3-73.019h42.044l-83.513 119.06h65.8z m0 0" fill="#FFFFFF" p-id="3629"></path></svg>