<?xml version="1.0" standalone="no"?><!DOCTYPE svg PUBLIC "-//W3C//DTD SVG 1.1//EN" "http://www.w3.org/Graphics/SVG/1.1/DTD/svg11.dtd"><svg t="1567927770947" class="icon" viewBox="0 0 1024 1024" version="1.1" xmlns="http://www.w3.org/2000/svg" p-id="4687" xmlns:xlink="http://www.w3.org/1999/xlink" width="32" height="32"><defs><style type="text/css"></style></defs><path d="M1024 824c0 110-90 200-200 200H200C90 1024 0 934 0 824V200C0 90 90 0 200 0h624c110 0 200 90 200 200v624z" fill="#5EC0C0" p-id="4688"></path><path d="M387.974 257.252c-27.514 85.868-71.019 162.286-130.929 229.467l13.187 41.841c22.013-22.53 41.841-46.202 60.011-70.394V766.33h40.707V395.867c22.008-38.003 40.178-78.705 54.512-121.585l-37.488-17.03z m28.036 483.644l34.16 24.711c39.038-39.663 73.198-86.387 101.752-140.272l-36.341-17.031c-27.514 51.706-61.051 95.727-99.571 132.592z m262.48-323.539h73.203v-38.52H678.49V263.792h-40.179v115.045h-98.537V263.792h-40.701v115.045h-71.017v38.52h71.017v128.75h-86.384v38.002H767.06v-38.002h-88.57v-128.75z m-40.178 128.75h-98.537v-128.75h98.537v128.75z m-15.889 78.186c43.505 51.709 78.188 98.532 103.415 140.272l35.199-24.193c-24.816-38.52-60.017-84.205-106.218-135.911l-32.396 19.832z m0 0" fill="#FFFFFF" p-id="4689"></path></svg>