<?xml version="1.0" standalone="no"?><!DOCTYPE svg PUBLIC "-//W3C//DTD SVG 1.1//EN" "http://www.w3.org/Graphics/SVG/1.1/DTD/svg11.dtd"><svg t="1567927768023" class="icon" viewBox="0 0 1024 1024" version="1.1" xmlns="http://www.w3.org/2000/svg" p-id="4555" xmlns:xlink="http://www.w3.org/1999/xlink" width="32" height="32"><defs><style type="text/css"></style></defs><path d="M1023.790043 823.83005c0 109.977446-89.981547 199.958993-199.958993 199.958993H199.958993c-109.977446 0-199.958993-89.981547-199.958993-199.958993v-623.872057c0-109.977446 89.981547-199.958993 199.958993-199.958993h623.872057c109.977446 0 199.958993 89.981547 199.958993 199.958993v623.872057z" fill="#44A7DF" p-id="4556"></path><path d="M522.506845 507.146995v75.402537h99.418612v-75.402537h-99.418612z m0 112.821863v83.222933h99.418612v-83.222933h-99.418612z m0 121.76003v25.690731H482.850978V440.12374a596.303711 596.303711 0 0 1-44.123951 60.32063l-13.404251-42.447295a560.533047 560.533047 0 0 0 96.625184-199.396108l39.097982 7.820396a681.327275 681.327275 0 0 1-31.278586 87.690017H630.860624a673.506878 673.506878 0 0 0-32.952242-86.572246l38.538097-10.611824c13.404251 33.512127 23.458189 63.671942 30.7197 91.596215l-15.078908 5.587855h106.678123v39.095982h-97.18407v75.959422h86.012361v37.980211h-86.012361v75.402537h86.012361v37.419326h-86.012361v83.222933h103.32781v38.537097H522.506845z m99.419611-348.521526h-99.418611v75.959422h99.418611v-75.959422z m-190.45994 94.391642v40.772639c-16.756564 8.376282-34.068013 16.195679-51.941348 23.457189v161.415897c0 31.275586-16.756564 47.472264-49.709806 47.472265h-51.385462l-8.376282-39.095983a437.630252 437.630252 0 0 0 45.798608 2.791428c15.078908 0 22.898304-7.261511 22.898304-21.781533V568.02751c-22.898304 7.819396-46.356493 15.637793-69.814683 22.340418l-10.053938-40.214752c27.368387-6.14274 54.17689-13.963136 79.868621-22.898304V398.792216h-71.492339V359.696234h71.492339V256.368424h40.773638V359.696234h56.410431v39.095982h-56.410431v112.823863a1119.600394 1119.600394 0 0 0 51.942348-24.017075z m0 0" fill="#FFFFFF" p-id="4557"></path></svg>