<?xml version="1.0" standalone="no"?><!DOCTYPE svg PUBLIC "-//W3C//DTD SVG 1.1//EN" "http://www.w3.org/Graphics/SVG/1.1/DTD/svg11.dtd"><svg t="1567927150154" class="icon" viewBox="0 0 1024 1024" version="1.1" xmlns="http://www.w3.org/2000/svg" p-id="2029" xmlns:xlink="http://www.w3.org/1999/xlink" width="32" height="32"><defs><style type="text/css"></style></defs><path d="M1024 824c0 110-90 200-200 200H200C90 1024 0 934 0 824V200C0 90 90 0 200 0h624c110 0 200 90 200 200v624z" fill="#E61F49" p-id="2030"></path><path d="M514.206 541.619c-83.7 0-151.563-67.86-151.563-151.566 0-83.7 67.863-151.556 151.563-151.556 83.706 0 151.569 67.856 151.569 151.556 0 40.2-15.976 78.747-44.395 107.172a151.582 151.582 0 0 1-107.174 44.394z m0-269.447c-47.681 0-90.656 28.728-108.906 72.778-18.25 44.041-8.162 94.747 25.55 128.459 33.719 33.716 84.418 43.797 128.475 25.56 44.044-18.25 72.756-61.234 72.756-108.916-0.087-65.031-52.837-117.709-117.875-117.709v-0.172z m0 0" fill="#FFFFFF" p-id="2031"></path><path d="M261.606 794.894c-9.307 0-16.844-7.544-16.844-16.831-0.038-107.287 63.563-204.388 161.931-247.188 98.375-42.803 212.775-23.175 291.238 49.975 6.05 6.469 6.068 16.513 0.024 22.988-6.037 6.48-16.05 7.175-22.919 1.605-68.668-64.063-168.812-81.256-254.918-43.781-86.106 37.469-141.756 122.476-141.668 216.4 0 4.463-1.775 8.744-4.938 11.894a16.823 16.823 0 0 1-11.906 4.938z" fill="#FFFFFF" p-id="2032"></path><path d="M582.794 755.506h-93.807c-9.525 0-18.462-3.743-25.219-10.506-6.762-6.775-10.506-15.744-10.506-25.213 0-9.524 3.737-18.449 10.506-25.219 6.756-6.769 15.731-10.512 25.213-10.512h93.813c9.519 0 18.45 3.743 25.212 10.512 6.77 6.77 10.513 15.75 10.513 25.219 0 5.27 4.281 9.557 9.557 9.557 5.287 0 9.568-4.287 9.568-9.557 0-30.262-24.606-54.868-54.875-54.868h-93.806c-14.6-0.025-28.375 5.669-38.775 16.075-10.388 10.406-16.125 24.149-16.125 38.769 0 15.112 6.163 28.831 16.106 38.787 9.943 9.944 23.656 16.081 38.793 16.106h93.806c5.281 0 9.569-4.294 9.569-9.575 0.013-5.281-4.274-9.575-9.543-9.575z m0 0" fill="#FFFFFF" p-id="2033"></path><path d="M789.987 721.356c0-14.625-5.712-28.369-16.118-38.757-10.395-10.394-24.145-16.125-38.77-16.125h-93.8c-5.281 0-9.575 4.281-9.575 9.551 0 5.287 4.294 9.574 9.575 9.574h93.8c9.513 0 18.457 3.744 25.219 10.5 6.77 6.763 10.494 15.744 10.494 25.213 0 9.525-3.725 18.45-10.494 25.219-6.762 6.769-15.75 10.513-25.219 10.513h-93.8c-9.519 0-18.462-3.744-25.231-10.513-6.762-6.769-10.506-15.737-10.506-25.219 0-5.269-4.287-9.563-9.557-9.563-5.281 0-9.563 4.294-9.563 9.563 0 14.619 5.731 28.375 16.119 38.775 10.406 10.394 24.169 16.125 38.775 16.125h93.813c14.618 0 28.375-5.744 38.762-16.125 10.402-10.399 16.102-24.137 16.076-38.731z m0 0" fill="#FFFFFF" p-id="2034"></path></svg>