<?xml version="1.0" standalone="no"?><!DOCTYPE svg PUBLIC "-//W3C//DTD SVG 1.1//EN" "http://www.w3.org/Graphics/SVG/1.1/DTD/svg11.dtd"><svg t="1567927773928" class="icon" viewBox="0 0 1024 1024" version="1.1" xmlns="http://www.w3.org/2000/svg" p-id="4819" xmlns:xlink="http://www.w3.org/1999/xlink" width="32" height="32"><defs><style type="text/css"></style></defs><path d="M1024 824c0 110-90 200-200 200H200C90 1024 0 934 0 824V200C0 90 90 0 200 0h624c110 0 200 90 200 200v624z" fill="#E61F49" p-id="4820"></path><path d="M194.519 320.619v20.953H182.87v-20.953h11.649z m104.849 0h-34.625v20.953h15.929c22.496 0 40.733 18.236 40.733 40.732v291.741c0 22.497-18.237 40.733-40.733 40.733H96.716c-22.496 0-40.732-18.236-40.732-40.733v-291.74c0-22.496 18.236-40.732 40.732-40.732h15.93V320.62H78.02c-25.021 0-45.306 20.284-45.306 45.306v324.503c0 25.021 20.284 45.305 45.306 45.305h221.348c25.023 0 45.307-20.284 45.307-45.305V365.925c0-25.022-20.284-45.306-45.307-45.306z m-139.717 39.147c0 7.819-6.339 14.158-14.158 14.158-7.82 0-14.159-6.339-14.159-14.158v-57.34c0-7.82 6.338-14.158 14.159-14.158 7.819 0 14.158 6.338 14.158 14.158v57.34z m83.571 0c0 7.819-6.338 14.158-14.158 14.158-7.819 0-14.158-6.339-14.158-14.158v-57.34c0-7.82 6.338-14.158 14.158-14.158 7.819 0 14.158 6.338 14.158 14.158v57.34z m86.161 49.765H48.005v22.653h281.378v-22.653z m-148.114 72.715c-32.351 0.652-49.815 16.494-52.393 47.542 0 17.464 7.762 29.106 23.286 34.928-19.404 7.762-29.107 21.996-29.107 42.689-0.651 18.116 5.17 31.699 17.464 40.75 11.643 7.124 25.544 10.991 41.72 11.643 37.505-1.304 57.243-19.071 59.184-53.362 0-20.042-9.384-33.958-28.137-41.72 14.22-7.763 21.345-20.375 21.345-37.839-2.592-28.455-20.375-43.327-53.362-44.631z m36.868 127.1c0 21.345-11.643 32.351-34.928 32.988-23.286-0.638-35.58-12.28-36.869-34.929 1.289-20.693 13.25-31.365 35.898-32.018 23.286 0.653 35.248 11.977 35.899 33.959z m-66.945-80.529c1.289-16.813 10.991-25.544 29.107-26.196 20.693 0.652 31.684 9.065 32.987 25.226-1.304 17.464-11.643 26.849-31.047 28.137-19.405-1.289-29.759-10.339-31.047-27.167z m355.397-208.198v20.953h11.649v-20.953h-11.649z m116.499 0h-34.625v20.953h15.93c22.494 0 40.732 18.236 40.732 40.732v291.741c0 22.497-18.238 40.733-40.732 40.733H420.435c-22.496 0-40.731-18.236-40.731-40.733v-291.74c0-22.496 18.236-40.732 40.731-40.732h15.931V320.62H401.74c-25.021 0-45.306 20.284-45.306 45.306v324.503c0 25.021 20.284 45.305 45.306 45.305h221.349c25.021 0 45.307-20.284 45.307-45.305V365.925c-0.001-25.022-20.287-45.306-45.308-45.306z m-139.717 39.147c0 7.819-6.339 14.158-14.158 14.158-7.82 0-14.159-6.339-14.159-14.158v-57.34c0-7.82 6.339-14.158 14.159-14.158 7.819 0 14.158 6.338 14.158 14.158v57.34z m83.57 0c0 7.819-6.338 14.158-14.158 14.158-7.82 0-14.158-6.339-14.158-14.158v-57.34c0-7.82 6.338-14.158 14.158-14.158 7.82 0 14.158 6.338 14.158 14.158v57.34z m86.163 49.765h-281.38v22.653h281.38v-22.653z m-193.083 74.371c-2.592 23.938-18.434 35.262-47.541 33.958v17.464h41.72v123.219h22.315V483.902h-16.494z m96.723-1.656c-32.35 0.652-49.814 16.494-52.392 47.542 0 17.464 7.763 29.106 23.286 34.928-19.405 7.762-29.107 21.996-29.107 42.689-0.652 18.116 5.169 31.699 17.465 40.75 11.643 7.124 25.543 10.991 41.719 11.643 37.506-1.304 57.244-19.071 59.184-53.362 0-20.042-9.383-33.958-28.137-41.72 14.221-7.763 21.346-20.375 21.346-37.839-2.592-28.455-20.376-43.327-53.364-44.631z m36.869 127.1c0 21.345-11.643 32.351-34.928 32.988-23.285-0.638-35.58-12.28-36.869-34.929 1.289-20.693 13.25-31.365 35.898-32.018 23.286 0.653 35.247 11.977 35.899 33.959z m-66.945-80.529c1.289-16.813 10.99-25.544 29.107-26.196 20.691 0.652 31.684 9.065 32.986 25.226-1.303 17.464-11.643 26.849-31.047 28.137-19.403-1.289-29.757-10.339-31.046-27.167zM829.48 320.619v20.953h11.648v-20.953H829.48z m116.499 0h-34.625v20.953h15.93c22.494 0 40.732 18.236 40.732 40.732v291.741c0 22.497-18.238 40.733-40.732 40.733H743.326c-22.496 0-40.732-18.236-40.732-40.733v-291.74c0-22.496 18.236-40.732 40.732-40.732h15.93V320.62h-34.625c-25.021 0-45.307 20.284-45.307 45.306v324.503c0 25.021 20.285 45.305 45.307 45.305h221.348c25.023 0 45.307-20.284 45.307-45.305V365.925c-0.001-25.022-20.284-45.306-45.307-45.306z m-139.717 39.147c0 7.819-6.338 14.158-14.158 14.158-7.82 0-14.158-6.339-14.158-14.158v-57.34c0-7.82 6.338-14.158 14.158-14.158 7.82 0 14.158 6.338 14.158 14.158v57.34z m83.57 0c0 7.819-6.338 14.158-14.158 14.158-7.818 0-14.156-6.339-14.156-14.158v-57.34c0-7.82 6.338-14.158 14.156-14.158 7.82 0 14.158 6.338 14.158 14.158v57.34z m86.162 49.765H694.615v22.653h281.379v-22.653z m-19.361 196.083c-1.896 33.497-21.176 50.854-57.813 52.127-15.801-0.637-29.381-4.414-40.754-11.373-12.01-8.841-17.695-22.11-17.059-39.806 0-20.214 9.477-34.119 28.432-41.7-15.164-5.687-22.746-17.06-22.746-34.119 2.52-30.328 19.578-45.803 51.178-46.439 32.225 1.273 49.596 15.8 52.127 43.596 0 17.06-6.959 29.38-20.85 36.963 18.319 7.58 27.485 21.175 27.485 40.751z m-57.813-49.282c18.955-1.259 29.055-10.426 30.328-27.484-1.273-15.787-12.01-24.005-32.225-24.642-17.695 0.637-27.174 9.166-28.432 25.589 1.259 16.437 11.374 25.278 30.329 26.537z m35.067 52.126c-0.637-21.473-12.32-32.535-35.066-33.171-22.125 0.636-33.809 11.062-35.066 31.275 1.258 22.123 13.268 33.497 36.014 34.118 22.745-0.62 34.118-11.371 34.118-32.222z m-157.28-100.795c20.402 0.605 31.209 10.216 32.418 28.816 1.197 14.409-8.709 27.016-29.717 37.822l-21.613 12.606c-24.623 13.213-37.23 34.53-37.822 63.938h110.766v-18.91h-88.252c1.801-11.398 10.807-21.613 27.016-30.618l17.111-9.906c30.615-13.803 45.32-31.813 44.125-54.03-1.801-30.618-18.912-46.827-51.33-48.629-36.625 1.21-55.24 20.712-55.832 58.534h20.711c0.591-26.411 11.398-39.623 32.419-39.623z" fill="#FFFFFF" p-id="4821"></path></svg>