<?xml version="1.0" standalone="no"?><!DOCTYPE svg PUBLIC "-//W3C//DTD SVG 1.1//EN" "http://www.w3.org/Graphics/SVG/1.1/DTD/svg11.dtd"><svg t="1567927730950" class="icon" viewBox="0 0 1024 1024" version="1.1" xmlns="http://www.w3.org/2000/svg" p-id="3225" xmlns:xlink="http://www.w3.org/1999/xlink" width="32" height="32"><defs><style type="text/css"></style></defs><path d="M1024 824c0 110-90 200-200 200H200C90 1024 0 934 0 824V200C0 90 90 0 200 0h624c110 0 200 90 200 200v624z" fill="#5EC0C0" p-id="3226"></path><path d="M389.553 332.413c0 13.222-10.703 23.934-23.925 23.934-13.203 0-23.916-10.712-23.916-23.934 0-13.188 10.712-23.91 23.916-23.91 13.216 0 23.925 10.722 23.925 23.91z m0 87.721c0 13.225-10.703 23.906-23.925 23.906-13.203 0-23.916-10.688-23.916-23.906 0-13.2 10.712-23.906 23.916-23.906 13.216 0 23.925 10.712 23.925 23.906z m216.297-66.112H445.36c-11.903 0-21.581-9.666-21.581-21.609 0-11.919 9.678-21.582 21.581-21.582h160.49c11.938 0 21.594 9.669 21.594 21.582-0.001 11.943-9.65 21.609-21.594 21.609z m0 87.725H445.36c-11.903 0-21.581-9.675-21.581-21.606s9.678-21.612 21.581-21.612h160.49c11.938 0 21.594 9.681 21.594 21.612s-9.65 21.606-21.594 21.606z m0 87.709H445.36c-11.903 0-21.581-9.675-21.581-21.59 0-11.957 9.678-21.616 21.581-21.616h160.49c11.938 0 21.594 9.659 21.594 21.616-0.001 11.915-9.65 21.59-21.594 21.59z m0 82.281H445.36c-11.903 0-21.581-9.681-21.581-21.612s9.678-21.588 21.581-21.588h160.49c11.938 0 21.594 9.65 21.594 21.588-0.001 11.932-9.65 21.612-21.594 21.612z m0 0" fill="#FFFFFF" p-id="3227"></path><path d="M832 321.038c0-78.035-28.818-106.847-64.388-106.847H329.719c-36.578 0-66.356 29.753-66.356 66.366V697.72h-64.509c0 97.425 35.959 112.156 80.353 112.156h384.119c36.606 0 66.375-29.756 66.375-66.362V321.038H832zM703.144 743.5c0 21.95-17.856 39.813-39.818 39.813-35.531 0-53.731-7.588-53.731-85.619H289.922V280.55c0-21.953 17.825-39.815 39.788-39.815h390.947c-10.513 16.678-17.081 41.928-17.369 77.959-0.081 0.813-0.149 1.619-0.149 2.344V743.5h0.005z m0 0" fill="#FFFFFF" p-id="3228"></path></svg>