<?xml version="1.0" standalone="no"?><!DOCTYPE svg PUBLIC "-//W3C//DTD SVG 1.1//EN" "http://www.w3.org/Graphics/SVG/1.1/DTD/svg11.dtd"><svg t="1567927700793" class="icon" viewBox="0 0 1024 1024" version="1.1" xmlns="http://www.w3.org/2000/svg" p-id="2296" xmlns:xlink="http://www.w3.org/1999/xlink" width="32" height="32"><defs><style type="text/css"></style></defs><path d="M1024 824c0 110-90 200-200 200H200C90 1024 0 934 0 824V200C0 90 90 0 200 0h624c110 0 200 90 200 200v624z" fill="#44A7DF" p-id="2297"></path><path d="M780.619 657.775l38.243-24.231-14.337-34.825-44.038 10.244c-6.149-8.538-13.993-16.382-22.531-22.869l9.906-44.037-34.481-14.338-23.55 37.894c-10.925-1.706-21.856-1.706-32.431-0.344l-23.551-38.225-34.824 13.993 9.563 43.688c-8.538 6.494-16.382 13.994-23.213 22.875l-43.356-10.243-14.337 34.481 37.55 24.23c-1.706 10.919-1.706 21.844 0 32.432l-37.888 23.544 14.338 34.825 43.693-9.557c6.487 8.531 13.994 16.381 22.869 22.869L598 803.881l34.481 14.338 24.575-37.894c10.918 1.7 21.506 1.7 32.094 0l24.23 38.225 34.819-14.325-10.244-44.043c8.538-6.15 16.044-13.988 22.875-22.531l44.031 9.906 14.338-34.481-38.237-23.894c1.025-10.239 1.025-20.826-0.343-31.407z m-43.338 42.668c-14.682 35.5-55.644 52.219-90.807 37.207-35.506-14.676-52.225-55.638-37.212-90.794 14.688-35.507 55.644-51.894 90.806-37.213 35.157 14.682 51.888 55.3 37.213 90.8zM348.478 397.666h258.403v46.422H348.478v-46.422z m0 130.397h178.184v46.081H348.478v-46.081z m0 115.38h129.028v46.082H348.478v-46.082z m0 0" fill="#FFFFFF" p-id="2298"></path><path d="M526.662 779.3H296.928c-25.6 0-50.522-26.294-50.522-51.55l0.341-310.969c0-22.872 27.313-26.969 50.181-26.969h69.297c12.628 0 23.212-10.241 23.212-23.209v-70.322c0-20.481-0.344-47.109 16.381-51.544h195.937c25.601 0 50.869 26.969 50.869 52.566v192.188h41.3V297.303c0-50.859-41.3-92.503-92.513-92.503H389.094c-24.575 0-48.128 22.869-87.731 63.15-5.456 5.803-11.262 11.266-17.063 17.065-5.803 5.803-11.606 11.266-17.068 17.069-40.281 39.6-63.15 63.153-63.15 87.728V727.75c0 50.862 41.307 92.513 92.503 92.513h229.734V779.3h0.343z m0 0" fill="#FFFFFF" p-id="2299"></path></svg>